<svg width="320" height="165" viewBox="0 0 320 165" fill="none" xmlns="http://www.w3.org/2000/svg">
<rect width="319" height="163" transform="translate(0 1)" fill="#FAFAFA"/>
<circle opacity="0.2" cx="304.047" cy="77" r="15" fill="#10FE84"/>
<circle opacity="0.2" cx="196.547" cy="13.5" r="10.5" fill="#10FE84"/>
<circle opacity="0.2" cx="34.0474" cy="134" r="10" fill="#10FE84"/>
<path d="M252.597 101.055L248.707 77L239.047 79.5882L245.066 102.051C245.459 103.515 246.964 104.384 248.428 103.992L252.687 102.851C253.291 102.689 253.425 101.893 252.908 101.542C252.742 101.43 252.629 101.253 252.597 101.055Z" stroke="#0D0D0D" stroke-linecap="round"/>
<path d="M219.886 101.055L223.777 77L233.436 79.5882L227.417 102.051C227.025 103.515 225.52 104.384 224.055 103.992L219.796 102.851C219.193 102.689 219.058 101.893 219.576 101.542C219.742 101.43 219.854 101.253 219.886 101.055Z" stroke="#0D0D0D" stroke-linecap="round"/>
<path d="M204.047 21H239.047C258.377 21 274.047 36.67 274.047 56C274.047 75.33 258.377 91 239.047 91H204.047V21Z" fill="#FF6730"/>
<circle cx="232.047" cy="50" r="2" fill="#0D0D0D"/>
<circle cx="245.047" cy="50" r="2" fill="#0D0D0D"/>
<path d="M238.047 59L239.047 59.5C239.459 59.706 239.459 60.294 239.047 60.5V60.5C238.635 60.706 238.635 61.294 239.047 61.5V61.5C239.459 61.706 239.459 62.294 239.047 62.5L238.047 63" stroke="#0D0D0D" stroke-width="1.5" stroke-linecap="round"/>
<path d="M218.047 76V76C221.348 76.6601 224.747 76.6601 228.047 76V76" stroke="#0D0D0D" stroke-width="1.5" stroke-linecap="round"/>
<path d="M260.047 76V76C256.747 76.6601 253.348 76.6601 250.047 76V76" stroke="#0D0D0D" stroke-width="1.5" stroke-linecap="round"/>
<path d="M216.047 68L220.047 76" stroke="#0D0D0D" stroke-linecap="round"/>
<path d="M262.047 68L258.047 76" stroke="#0D0D0D" stroke-linecap="round"/>
<path d="M224.047 71L226.047 76" stroke="#0D0D0D" stroke-linecap="round"/>
<path d="M254.047 71L252.047 76" stroke="#0D0D0D" stroke-linecap="round"/>
<path d="M176.597 101.055L172.707 77L163.047 79.5882L169.066 102.051C169.459 103.515 170.964 104.384 172.428 103.992L176.687 102.851C177.291 102.689 177.425 101.893 176.908 101.542C176.742 101.43 176.629 101.253 176.597 101.055Z" stroke="#0D0D0D" stroke-linecap="round"/>
<path d="M147.516 103.242L145.047 79H155.047V102.255C155.047 103.771 153.819 105 152.303 105H147.893C147.268 105 146.933 104.266 147.341 103.794C147.473 103.642 147.536 103.442 147.516 103.242Z" stroke="#0D0D0D" stroke-linecap="round"/>
<path fill-rule="evenodd" clip-rule="evenodd" d="M171.307 21H130.047V45.6296V62.4815V91H192.047L178.477 61.2086C186.398 58.2901 192.047 50.6751 192.047 41.7407C192.047 30.2859 182.761 21 171.307 21Z" fill="#F67EBF"/>
<path d="M147.047 61L143.883 61.6981C143.359 61.8139 143.098 62.4062 143.366 62.8715V62.8715C143.472 63.054 143.645 63.1872 143.849 63.2418L143.919 63.2605C144.273 63.3554 144.543 63.6425 144.617 64.002L144.674 64.2809C144.826 65.0243 145.533 65.5193 146.283 65.4084L149.047 65" stroke="#0D0D0D" stroke-linecap="round"/>
<path d="M147.047 61V61C148.372 61 149.688 61.2136 150.945 61.6325L155.047 63" stroke="#0D0D0D" stroke-linecap="round"/>
<circle cx="153.047" cy="44" r="2" fill="#0D0D0D"/>
<circle cx="166.047" cy="44" r="2" fill="#0D0D0D"/>
<path d="M142.047 59L142.276 59.9153C142.448 60.6038 142.913 61.1826 143.547 61.5V61.5" stroke="#0D0D0D" stroke-linecap="round"/>
<path d="M158.047 52V52C159.306 52.6295 160.788 52.6295 162.047 52V52" stroke="#0D0D0D" stroke-width="1.5" stroke-linecap="round"/>
<path d="M135.047 62V62C139.321 70.5475 150.062 73.5034 158.107 68.3462L162.547 65.5" stroke="#0D0D0D" stroke-linecap="round"/>
<path d="M177.047 62V62C174.283 69.7404 165.78 73.7878 158.029 71.0523L155.047 70" stroke="#0D0D0D" stroke-linecap="round"/>
<path d="M170.047 60L169.945 60.3079C168.812 63.7072 165.631 66 162.047 66V66" stroke="#0D0D0D" stroke-linecap="round"/>
<path d="M149.047 65V65C154.178 62.4345 160.106 61.9659 165.577 63.6934L166.547 64" stroke="#0D0D0D" stroke-linecap="round"/>
<path d="M6.21163 66.4601L19.7854 51.435L26.5654 65.1475L6.21163 66.4601Z" fill="#FED052"/>
<path d="M19.7854 51.4351L28.9549 70.2013" stroke="#0D0D0D" stroke-linecap="round"/>
<path d="M31.0855 74.2891L37.6068 87.0356" stroke="#0D0D0D" stroke-linecap="round"/>
<path d="M93.2782 103.428L89.3878 79.3726L79.7286 81.9607L85.7474 104.424C86.1398 105.888 87.6449 106.757 89.1091 106.364L93.3686 105.223C93.972 105.061 94.1061 104.265 93.589 103.915C93.4227 103.802 93.3103 103.626 93.2782 103.428Z" stroke="#0D0D0D" stroke-linecap="round"/>
<path d="M72.9322 108.879L64.2737 86.1019L73.933 83.5137L79.9519 105.976C80.3442 107.441 79.4753 108.946 78.011 109.338L73.7516 110.479C73.1482 110.641 72.6341 110.019 72.9067 109.457C72.9943 109.276 73.0035 109.067 72.9322 108.879Z" stroke="#0D0D0D" stroke-linecap="round"/>
<path d="M35.9665 33.6408L87.672 19.7863L113.744 85.2697L46.1292 103.387L35.9665 33.6408Z" fill="#01C8F4"/>
<circle cx="60.0447" cy="51.0004" r="2" transform="rotate(-15 60.0447 51.0004)" fill="#0D0D0D"/>
<path d="M75.9477 44.6686L72.6017 47.6358L76.983 48.5323" stroke="#0D0D0D" stroke-width="1.5" stroke-linecap="round" stroke-linejoin="round"/>
<path d="M66.7554 60.5903V60.5903C69.461 62.1524 72.9207 61.2254 74.4828 58.5198V58.5198" stroke="#0D0D0D" stroke-width="1.5" stroke-linecap="round"/>
<path d="M93.353 55.534L95.9669 53.9991C102.138 50.3752 105.264 43.181 103.701 36.1969V36.1969" stroke="#0D0D0D" stroke-linecap="round"/>
<path d="M94.9059 61.3296L99.0584 58.765C107.138 53.775 110.988 44.0758 108.53 34.9028V34.9028" stroke="#0D0D0D" stroke-linecap="round"/>
<path d="M103.701 36.197L103.244 34.4931C103.068 33.8337 103.459 33.1559 104.118 32.9793L104.316 32.9262C104.647 32.8376 104.9 32.5695 104.968 32.2339V32.2339C105.037 31.8982 105.289 31.6302 105.62 31.5415L106.003 31.4391C106.827 31.2182 107.674 31.7073 107.895 32.5316L108.53 34.9029" stroke="#0D0D0D" stroke-linecap="round"/>
<path d="M51.1111 67.888L50.5555 67.9789C44.3331 68.9966 38.017 69.3196 31.7233 68.9418V68.9418" stroke="#0D0D0D" stroke-linecap="round"/>
<path d="M52.664 73.6835V73.6835C46.3118 75.3856 39.6505 75.5853 33.2078 74.2669L32.0514 74.0303" stroke="#0D0D0D" stroke-linecap="round"/>
<path d="M31.8848 68.9351H30.1209C29.4382 68.9351 28.8848 69.4885 28.8848 70.1711V70.376C28.8848 70.7186 28.6913 71.0318 28.3848 71.1851V71.1851C28.0784 71.3383 27.8848 71.6515 27.8848 71.9941V72.4035C27.8848 73.255 28.5648 73.9506 29.416 73.97L32.0514 74.0303" stroke="#0D0D0D" stroke-linecap="round"/>
<path d="M182.579 162.242L185.047 138L175.047 138L175.047 161.255C175.047 162.771 176.276 164 177.792 164L182.202 164C182.827 164 183.162 163.266 182.753 162.794C182.622 162.642 182.559 162.442 182.579 162.242Z" stroke="#0D0D0D" stroke-linecap="round"/>
<path d="M167.516 162.242L165.047 138L175.047 138L175.047 161.255C175.047 162.771 173.819 164 172.303 164L167.893 164C167.268 164 166.933 163.266 167.341 162.794C167.473 162.642 167.536 162.442 167.516 162.242Z" stroke="#0D0D0D" stroke-linecap="round"/>
<circle cx="159.047" cy="101" r="21" fill="#63D001"/>
<circle cx="159.047" cy="129" r="21" fill="#63D001"/>
<ellipse cx="175.742" cy="115" rx="20.6949" ry="21" fill="#63D001"/>
<circle cx="191.047" cy="101" r="21" fill="#63D001"/>
<circle cx="191.047" cy="129" r="21" fill="#63D001"/>
<circle cx="166.047" cy="107" r="2" fill="#0D0D0D"/>
<circle cx="180.047" cy="107" r="2" fill="#0D0D0D"/>
<path d="M170.047 119V119C171.306 119.63 172.788 119.63 174.047 119V119" stroke="#0D0D0D" stroke-width="1.5" stroke-linecap="round"/>
<path d="M175.047 117V117C174.418 118.259 174.418 119.741 175.047 121V121" stroke="#0D0D0D" stroke-width="1.5" stroke-linecap="round"/>
<path d="M152.047 123V123C156.612 127.564 162.425 130.676 168.755 131.941L169.047 132" stroke="#0D0D0D" stroke-linecap="round"/>
<path d="M198.047 123V123C193.483 127.564 187.67 130.676 181.34 131.941L181.047 132" stroke="#0D0D0D" stroke-linecap="round"/>
<path d="M147.047 128V128C152.845 133.153 160.332 136 168.089 136H169.047" stroke="#0D0D0D" stroke-linecap="round"/>
<path d="M203.047 128V128C197.25 133.153 189.763 136 182.006 136H181.047" stroke="#0D0D0D" stroke-linecap="round"/>
<path d="M169.047 132H173.047C173.6 132 174.047 132.448 174.047 133V133C174.047 133.552 173.6 134 173.047 134V134C172.495 134 172.047 134.448 172.047 135V135C172.047 135.552 171.6 136 171.047 136H169.047" stroke="#0D0D0D" stroke-linecap="round"/>
<path d="M181.047 132H177.047C176.495 132 176.047 132.448 176.047 133V133C176.047 133.552 176.495 134 177.047 134V134C177.6 134 178.047 134.448 178.047 135V135C178.047 135.552 178.495 136 179.047 136H181.047" stroke="#0D0D0D" stroke-linecap="round"/>
<path d="M95.5793 162.242L98.0474 138L88.0474 138L88.0474 161.255C88.0474 162.771 89.2763 164 90.7922 164L95.2019 164C95.8266 164 96.1621 163.266 95.7534 162.794C95.6219 162.642 95.559 162.442 95.5793 162.242Z" stroke="#0D0D0D" stroke-linecap="round"/>
<path d="M82.5793 162.242L85.0474 138L75.0474 138L75.0474 161.255C75.0474 162.771 76.2763 164 77.7922 164L82.2019 164C82.8266 164 83.1621 163.266 82.7534 162.794C82.6219 162.642 82.559 162.442 82.5793 162.242Z" stroke="#0D0D0D" stroke-linecap="round"/>
<path d="M59.0474 80H100.526C111.86 80 121.047 89.1878 121.047 100.521C121.047 111.855 111.86 121.043 100.526 121.043H59.0474V80Z" fill="#018EDF"/>
<path d="M59.0474 108.957H100.526C111.86 108.957 121.047 118.145 121.047 129.479C121.047 140.812 111.86 150 100.526 150H59.0474V108.957Z" fill="#018EDF"/>
<circle cx="84.0474" cy="97" r="2" fill="#0D0D0D"/>
<circle cx="98.0474" cy="97" r="2" fill="#0D0D0D"/>
<path d="M86.0474 107V107C88.4524 109.672 92.6425 109.672 95.0474 107V107" stroke="#0D0D0D" stroke-width="1.5" stroke-linecap="round"/>
<path d="M69.0474 114V114C61.0331 110.918 55.3414 103.705 54.2066 95.1938L54.0474 94" stroke="#0D0D0D" stroke-linecap="round"/>
<path d="M109.047 114V114C117.062 110.918 122.753 103.705 123.888 95.1938L124.047 94" stroke="#0D0D0D" stroke-linecap="round"/>
<path d="M69.0474 122V122C57.1756 117.845 49.0474 106.578 49.0474 94V94" stroke="#0D0D0D" stroke-linecap="round"/>
<path d="M109.047 122V122C120.919 117.845 129.047 106.578 129.047 94V94" stroke="#0D0D0D" stroke-linecap="round"/>
<path d="M49.0474 94V90.8541C49.0474 89.8301 49.8775 89 50.9015 89H51.4884C51.831 89 52.1442 89.1936 52.2974 89.5L52.3238 89.5528C52.4609 89.8269 52.741 90 53.0474 90V90V90C53.5997 90 54.0474 90.4477 54.0474 91V94" stroke="#0D0D0D" stroke-linecap="round"/>
<path d="M129.047 94V90.8541C129.047 89.8301 128.217 89 127.193 89H126.606C126.264 89 125.951 89.1936 125.797 89.5L125.771 89.5528C125.634 89.8269 125.354 90 125.047 90V90V90C124.495 90 124.047 90.4477 124.047 91V94" stroke="#0D0D0D" stroke-linecap="round"/>
<path d="M267.579 162.242L270.047 138L260.047 138L260.047 161.255C260.047 162.771 261.276 164 262.792 164L267.202 164C267.827 164 268.162 163.266 267.753 162.794C267.622 162.642 267.559 162.442 267.579 162.242Z" stroke="#0D0D0D" stroke-linecap="round"/>
<path d="M248.516 162.242L246.047 138L256.047 138L256.047 161.255C256.047 162.771 254.819 164 253.303 164L248.893 164C248.268 164 247.933 163.266 248.341 162.794C248.473 162.642 248.536 162.442 248.516 162.242Z" stroke="#0D0D0D" stroke-linecap="round"/>
<path d="M259.047 80L266.129 91.5723L278.047 85.091L278.394 98.6536L291.956 99L285.475 110.919L297.047 118L285.475 125.081L291.956 137L278.394 137.346L278.047 150.909L266.129 144.428L259.047 156L251.966 144.428L240.047 150.909L239.701 137.346L226.138 137L232.62 125.081L221.047 118L232.62 110.919L226.138 99L239.701 98.6536L240.047 85.091L251.966 91.5723L259.047 80Z" fill="#FED052"/>
<path d="M248.047 113H252.047" stroke="#0D0D0D" stroke-width="1.45833" stroke-linecap="round"/>
<path d="M263.047 113H267.047" stroke="#0D0D0D" stroke-width="1.45833" stroke-linecap="round"/>
<path d="M256.047 122V122C257.306 122.63 258.788 122.63 260.047 122V122" stroke="#0D0D0D" stroke-width="1.5" stroke-linecap="round"/>
<path d="M234.047 128L233.716 128.662C231.279 133.538 233.826 139.434 239.047 141V141" stroke="#0D0D0D" stroke-linecap="round"/>
<path d="M284.047 128L284.378 128.662C286.816 133.538 284.269 139.434 279.047 141V141" stroke="#0D0D0D" stroke-linecap="round"/>
<path d="M238.047 133V133.764C238.047 135.234 238.39 136.685 239.047 138V138" stroke="#0D0D0D" stroke-linecap="round"/>
<path d="M280.047 133V133.764C280.047 135.234 279.705 136.685 279.047 138V138" stroke="#0D0D0D" stroke-linecap="round"/>
<path d="M19.0474 9.5L23.0474 17" stroke="#01DF6D" stroke-width="2" stroke-linecap="round"/>
<path d="M28.0474 3L29.0474 12" stroke="#01DF6D" stroke-width="2" stroke-linecap="round"/>
<path d="M38.0474 4L35.0474 17" stroke="#01DF6D" stroke-width="2" stroke-linecap="round"/>
<circle cx="114.047" cy="20" r="3" fill="#01DF6D"/>
<path d="M284.047 75L287.047 64L294.047 69L298.047 57" stroke="#01DF6D" stroke-width="2" stroke-linecap="round" stroke-linejoin="round"/>
<circle cx="42.0474" cy="140" r="3" stroke="#01DF6D" stroke-width="2"/>
<circle cx="298.047" cy="160" r="3" stroke="#01DF6D" stroke-width="2"/>
<path d="M198.047 14V14C198.671 10.8808 200.828 8.28766 203.782 7.10627L204.047 7" stroke="#01DF6D" stroke-width="2" stroke-linecap="round" stroke-linejoin="round"/>
<path d="M204.047 8V8C204.671 4.88079 206.828 2.28766 209.782 1.10627L210.047 1" stroke="#01DF6D" stroke-width="2" stroke-linecap="round" stroke-linejoin="round"/>
<path d="M207.012 8.09808C207.653 9.20921 207.289 10.2474 206.712 10.5801C206.136 10.9129 205.055 10.7092 204.413 9.59808C203.772 8.48694 204.136 7.44875 204.712 7.11603C205.289 6.7833 206.37 6.98694 207.012 8.09808Z" stroke="#01DF6D" stroke-width="2"/>
</svg>
