<svg width="18" height="18" viewBox="0 0 18 18" fill="none" xmlns="http://www.w3.org/2000/svg">
<circle cx="9" cy="9" r="7.25" stroke="#CCCCCC" stroke-width="1.5"/>
<circle cx="9" cy="13" r="1" fill="#CCCCCC"/>
<path d="M10.3603 5.58579L10.8668 5.03266L10.8668 5.03266L10.3603 5.58579ZM9.24205 5.03843L9.10764 5.77629L9.24205 5.03843ZM6.39414 5.44678C6.14999 5.78139 6.22332 6.25057 6.55792 6.49472C6.89253 6.73887 7.36171 6.66554 7.60586 6.33094L6.39414 5.44678ZM9 9C9.1293 9.73877 9.12939 9.73876 9.12947 9.73874C9.12951 9.73873 9.1296 9.73872 9.12966 9.73871C9.12979 9.73868 9.12993 9.73866 9.13008 9.73863C9.13039 9.73858 9.13073 9.73852 9.13111 9.73845C9.13189 9.73831 9.13282 9.73815 9.13392 9.73795C9.13611 9.73756 9.13895 9.73705 9.1424 9.73642C9.14931 9.73516 9.15869 9.73342 9.1703 9.7312C9.19349 9.72676 9.22574 9.72039 9.26506 9.7121C9.34325 9.69562 9.45166 9.67106 9.57369 9.63843C9.79719 9.57868 10.1435 9.47236 10.4208 9.30268L9.6379 8.02319C9.55605 8.07328 9.38767 8.13549 9.18628 8.18933C9.09588 8.2135 9.01429 8.232 8.9556 8.24437C8.92647 8.25051 8.90356 8.25502 8.8887 8.25787C8.88128 8.25928 8.87591 8.26028 8.87283 8.26084C8.87128 8.26112 8.87032 8.2613 8.86995 8.26136C8.86977 8.26139 8.86974 8.2614 8.86986 8.26138C8.86992 8.26137 8.87002 8.26135 8.87016 8.26132C8.87023 8.26131 8.87031 8.2613 8.8704 8.26128C8.87044 8.26127 8.87052 8.26126 8.87054 8.26126C8.87062 8.26124 8.8707 8.26123 9 9ZM10.4208 9.30268C10.9014 9.00858 11.2866 8.58393 11.5171 8.07446L10.1504 7.45627C10.0502 7.67771 9.87557 7.87777 9.6379 8.02319L10.4208 9.30268ZM11.5171 8.07446C11.748 7.56391 11.8098 6.99769 11.6909 6.45062L10.2251 6.76902C10.2748 6.99787 10.2501 7.23592 10.1504 7.45627L11.5171 8.07446ZM11.6909 6.45062C11.5723 5.90428 11.2814 5.4123 10.8668 5.03266L9.8538 6.13891C10.0501 6.31869 10.1753 6.53943 10.2251 6.76902L11.6909 6.45062ZM10.8668 5.03266C10.4529 4.65366 9.93326 4.40199 9.37645 4.30057L9.10764 5.77629C9.39816 5.82921 9.65679 5.95851 9.8538 6.13891L10.8668 5.03266ZM9.37645 4.30057C8.81974 4.19917 8.2421 4.25075 7.71418 4.45099L8.24616 5.85349C8.5164 5.75099 8.81703 5.72335 9.10764 5.77629L9.37645 4.30057ZM7.71418 4.45099C7.18599 4.65134 6.72414 4.99452 6.39414 5.44678L7.60586 6.33094C7.75583 6.12541 7.97618 5.95589 8.24616 5.85349L7.71418 4.45099Z" fill="#CCCCCC"/>
<path d="M9 9V10.5" stroke="#CCCCCC" stroke-width="1.5" stroke-linecap="round"/>
</svg>
