<svg width="18" height="18" viewBox="0 0 18 18" fill="none" xmlns="http://www.w3.org/2000/svg">
<path fill-rule="evenodd" clip-rule="evenodd" d="M11.6375 9.99999L10.8875 11.8L10.2474 14.0403C10.1455 14.397 9.89857 14.6944 9.56683 14.8603C9.3831 14.9522 9.18051 15 8.97509 15L8.25314 15C7.89093 15 7.54357 14.8561 7.28745 14.6C7.03134 14.3439 6.88745 13.9965 6.88745 13.6343L6.88745 9.4L4.44001 9.4C4.08428 9.4 3.74115 9.26833 3.47674 9.03036C3.10985 8.70016 2.93766 8.20504 3.02048 7.71844L3.60492 4.28487C3.65861 3.96943 3.80898 3.67847 4.03524 3.45221C4.32479 3.16266 4.7175 3 5.12698 3L8.48745 3L9.28745 3L11.6375 3L11.6375 9.99999ZM12.1375 9.4L13.5218 9.4C13.884 9.4 14.2313 9.25612 14.4875 9C14.7436 8.74388 14.8875 8.39652 14.8875 8.03432L14.8875 4.36569C14.8875 4.00348 14.7436 3.65612 14.4875 3.4C14.2313 3.14388 13.884 3 13.5218 3L12.1375 3L12.1375 9.4Z" fill="#4D4D4D"/>
</svg>
