<svg width="18" height="18" viewBox="0 0 18 18" fill="none" xmlns="http://www.w3.org/2000/svg">
<path fill-rule="evenodd" clip-rule="evenodd" d="M6.25 8L7 6.2L7.64009 3.95967C7.74199 3.60305 7.98888 3.30556 8.32062 3.13969C8.50435 3.04783 8.70694 3 8.91236 3H9.63431C9.99652 3 10.3439 3.14388 10.6 3.4C10.8561 3.65612 11 4.00348 11 4.36569V8.6H13.4474C13.8032 8.6 14.1463 8.73167 14.4107 8.96964C14.7776 9.29984 14.9498 9.79496 14.867 10.2816L14.2825 13.7151C14.2288 14.0306 14.0785 14.3215 13.8522 14.5478C13.5627 14.8373 13.17 15 12.7605 15H9.4H8.6H6.25L6.25 8ZM5.75 8.6H4.36569C4.00348 8.6 3.65612 8.74388 3.4 9C3.14388 9.25612 3 9.60348 3 9.96568V13.6343C3 13.9965 3.14388 14.3439 3.4 14.6C3.65612 14.8561 4.00348 15 4.36568 15H5.75L5.75 8.6Z" fill="#01D066"/>
</svg>
